<svg xmlns="http://www.w3.org/2000/svg" version="1.1" xmlns:xlink="http://www.w3.org/1999/xlink" xmlns:svgjs="http://svgjs.dev/svgjs" width="1500" height="1500" viewBox="0 0 1500 1500"><rect width="1500" height="1500" fill="#000000"></rect><g transform="matrix(0.6666666666666666,0,0,0.6666666666666666,249.39393939393938,612.1253337001021)"><svg viewBox="0 0 396 109" data-background-color="#000000" preserveAspectRatio="xMidYMid meet" height="412" width="1500" xmlns="http://www.w3.org/2000/svg" xmlns:xlink="http://www.w3.org/1999/xlink"><g id="tight-bounds" transform="matrix(1,0,0,1,0.2400000000000091,0.21482509716824438)"><svg viewBox="0 0 395.52 108.57034980566353" height="108.57034980566353" width="395.52"><g><svg viewBox="0 0 395.52 108.57034980566353" height="108.57034980566353" width="395.52"><g><svg viewBox="0 0 395.52 108.57034980566353" height="108.57034980566353" width="395.52"><g id="textblocktransform"><svg viewBox="0 0 395.52 108.57034980566353" height="108.57034980566353" width="395.52" id="textblock"><g><svg viewBox="0 0 395.52 108.57034980566353" height="108.57034980566353" width="395.52"><g transform="matrix(1,0,0,1,0,0)"><svg width="395.52" viewBox="0.323125 -39.2 144.066875 39.550000000000004" height="108.57034980566353" data-palette-color="url(#513fc3fe-7462-47d3-b039-3be8821d4401)"></svg></g></svg></g></svg></g></svg></g></svg></g><defs></defs><mask id="13f0afab-10b7-456a-aed6-8264451b54cb"><g id="SvgjsG2892"><svg viewBox="0 0 395.52 108.57034980566353" height="108.57034980566353" width="395.52"><g><svg viewBox="0 0 395.52 108.57034980566353" height="108.57034980566353" width="395.52"><g><svg viewBox="0 0 395.52 108.57034980566353" height="108.57034980566353" width="395.52"><g id="SvgjsG2891"><svg viewBox="0 0 395.52 108.57034980566353" height="108.57034980566353" width="395.52" id="SvgjsSvg2890"><g><svg viewBox="0 0 395.52 108.57034980566353" height="108.57034980566353" width="395.52"><g transform="matrix(1,0,0,1,0,0)"><svg width="395.52" viewBox="0.323125 -39.2 144.066875 39.550000000000004" height="108.57034980566353" data-palette-color="url(#513fc3fe-7462-47d3-b039-3be8821d4401)"><path d="M36.85-32.2L36.85-32.2Q36.8-31.6 36.58-30.55 36.35-29.5 36.08-28.5 35.8-27.5 35.52-26.78 35.25-26.05 35.05-26.15L35.05-26.15Q35-26.2 35-26.45 35-26.7 35.02-27.03 35.05-27.35 35.08-27.65 35.1-27.95 35.15-28.1L35.15-28.1Q35.2-28.45 35.3-29.05 35.4-29.65 35.48-30.28 35.55-30.9 35.63-31.48 35.7-32.05 35.75-32.45L35.75-32.45Q35.85-33.4 35.85-34.25 35.85-35.1 35.75-36.05L35.75-36.05Q35.75-36.15 35.77-36.3 35.8-36.45 35.9-36.45L35.9-36.45Q36.2-36.45 36.3-36.05L36.3-36.05Q36.55-35.35 36.75-34.52 36.95-33.7 36.85-32.2ZM37.4-35.7L37.4-35.7Q38.15-33.7 38.27-31.48 38.4-29.25 38.1-27 37.8-24.75 37.18-22.58 36.55-20.4 35.75-18.5L35.75-18.5Q34.7-16 33.55-13.58 32.4-11.15 31.3-8.83 30.2-6.5 29.28-4.3 28.35-2.1 27.8 0L27.8 0Q27.75 0.15 27.6 0.23 27.45 0.3 27.45 0L27.45 0Q27.35-2.4 28.08-4.85 28.8-7.3 29.93-9.78 31.05-12.25 32.33-14.75 33.6-17.25 34.65-19.85L34.65-19.85Q35.3-21.45 35.9-23.45 36.5-25.45 36.9-27.55 37.3-29.65 37.4-31.75 37.5-33.85 37.2-35.6L37.2-35.6Q37.1-36.1 37.25-35.95L37.25-35.95 37.3-35.9Q37.35-35.85 37.35-35.8 37.35-35.75 37.4-35.7ZM20.95-30.7L20.95-30.7Q20.9-30.1 20.73-29.28 20.55-28.45 20.35-27.73 20.15-27 19.93-26.5 19.7-26 19.5-26.1L19.5-26.1Q19.45-26.1 19.45-26.35 19.45-26.6 19.48-26.93 19.5-27.25 19.53-27.55 19.55-27.85 19.6-28L19.6-28Q19.9-29.45 19.95-31.05L19.95-31.05Q20.05-31.95 20.03-32.73 20-33.5 19.85-34.45L19.85-34.45Q19.85-34.55 19.78-34.88 19.7-35.2 19.85-35.2L19.85-35.2Q19.95-35.2 20.15-34.9L20.15-34.9 20.35-34.6Q20.55-34.15 20.7-33.75 20.85-33.35 20.93-32.95 21-32.55 21-32 21-31.45 20.95-30.7ZM33.5-21.45L33.5-21.45Q33.65-21.35 33.55-20.95 33.45-20.55 33.45-20.4L33.45-20.4Q33.25-19.8 32.98-18.98 32.7-18.15 32.38-17.28 32.05-16.4 31.73-15.6 31.4-14.8 31.1-14.25L31.1-14.25Q30.95-13.95 30.58-13.08 30.2-12.2 29.75-10.98 29.3-9.75 28.8-8.33 28.3-6.9 27.9-5.55 27.5-4.2 27.2-3.08 26.9-1.95 26.9-1.3L26.9-1.3Q26.9-1.05 26.8-0.95L26.8-0.95Q26.75-0.9 26.7-0.95L26.7-0.95Q26.65-0.95 26.45-1.15L26.45-1.15Q26.2-1.5 25.75-2.02 25.3-2.55 24.95-3.1L24.95-3.1Q24.65-3.6 24.35-4.42 24.05-5.25 23.8-6.08 23.55-6.9 23.45-7.5 23.35-8.1 23.5-8.2L23.5-8.2Q23.55-8.2 23.7-7.98 23.85-7.75 24-7.45 24.15-7.15 24.28-6.88 24.4-6.6 24.45-6.5L24.45-6.5Q24.8-5.85 25.08-5.23 25.35-4.6 25.6-3.95L25.6-3.95Q25.85-3.3 26.15-2.83 26.45-2.35 26.5-2.4L26.5-2.4Q26.55-2.4 26.55-2.68 26.55-2.95 26.53-3.3 26.5-3.65 26.48-3.98 26.45-4.3 26.45-4.45L26.45-4.45Q26.35-6.35 26.68-7.9 27-9.45 27.55-10.7L27.55-10.7Q28.65-13.25 30.08-15.88 31.5-18.5 32.9-20.75L32.9-20.75Q33-20.85 33.23-21.15 33.45-21.45 33.5-21.45ZM26.5 0L26.5 0Q24.7-0.9 23.43-2.53 22.15-4.15 21.3-6.03 20.45-7.9 19.95-9.85 19.45-11.8 19.25-13.45L19.25-13.45Q19.15-14.2 19.1-14.93 19.05-15.65 19.05-15.9L19.05-15.9Q18.15-13.8 17.15-11.7 16.15-9.6 15.25-7.58 14.35-5.55 13.6-3.63 12.85-1.7 12.4 0L12.4 0Q12.35 0.2 12.2 0.35L12.2 0.35Q12.05 0.35 12.05 0L12.05 0Q12-2.4 12.7-4.8 13.4-7.2 14.48-9.68 15.55-12.15 16.8-14.68 18.05-17.2 19.1-19.8L19.1-19.8Q19.75-21.4 20.28-23.18 20.8-24.95 21.15-26.78 21.5-28.6 21.55-30.48 21.6-32.35 21.3-34.1L21.3-34.1Q21.25-34.35 21.2-34.43 21.15-34.5 21.25-34.5L21.25-34.5Q21.4-34.5 21.5-34.25L21.5-34.25Q22-32.9 22.23-31.58 22.45-30.25 22.55-28.9L22.55-28.9Q23.15-27.8 23.55-26.13 23.95-24.45 24.28-22.65 24.6-20.85 24.83-19.1 25.05-17.35 25.3-16.05L25.3-16.05Q25.55-14.9 25.68-13.65 25.8-12.4 25.9-11.25L25.9-11.25Q26.25-12.65 26.78-14.1 27.3-15.55 27.85-16.93 28.4-18.3 28.9-19.5 29.4-20.7 29.8-21.6L29.8-21.6Q30.25-22.7 30.85-24.05 31.45-25.4 32.08-26.7 32.7-28 33.33-29.18 33.95-30.35 34.45-31.15L34.45-31.15Q34.7-31.5 34.88-31.73 35.05-31.95 35.15-31.9L35.15-31.9Q35.25-31.8 35.18-31.58 35.1-31.35 35-31.1L35-31.1Q34.5-29.3 33.8-27.33 33.1-25.35 32.3-23.35 31.5-21.35 30.68-19.4 29.85-17.45 29.05-15.7L29.05-15.7Q28.2-13.75 27.25-11.75 26.3-9.75 25.9-7.35L25.9-7.35Q25.8-6.8 25.68-6.68 25.55-6.55 25.3-7.4L25.3-7.4Q24.05-12.1 23.5-16.82 22.95-21.55 22.25-26.35L22.25-26.35Q22.1-24.9 22-23.9 21.9-22.9 22-21.5L22-21.5Q22.1-19.7 22.25-17.93 22.4-16.15 22.45-14.6L22.45-14.6Q22.45-14.45 22.43-13.95 22.4-13.45 22.25-13.45L22.25-13.45Q22.2-13.4 22.15-13.53 22.1-13.65 22.03-13.85 21.95-14.05 21.88-14.23 21.8-14.4 21.8-14.5L21.8-14.5Q21.55-15.5 21.25-16.95 20.95-18.4 20.7-19.8L20.7-19.8Q20.3-18.55 20.2-17.28 20.1-16 20.4-14.2L20.4-14.2Q20.75-12.3 21.3-10.33 21.85-8.35 22.63-6.5 23.4-4.65 24.4-3 25.4-1.35 26.65-0.15L26.65-0.15Q26.8-0.05 26.75 0.03 26.7 0.1 26.5 0ZM19.25-30.4L19.25-30.4Q19.35-30.3 19.25-30.05 19.15-29.8 19.1-29.6L19.1-29.6Q18.75-27.8 18.13-26.03 17.5-24.25 16.75-22.53 16-20.8 15.18-19.07 14.35-17.35 13.55-15.6L13.55-15.6Q12.7-13.7 11.83-11.7 10.95-9.7 10.5-7.25L10.5-7.25Q10.4-6.75 10.3-6.6 10.2-6.45 9.95-7.35L9.95-7.35Q9-10.75 8.47-14.33 7.95-17.9 7.55-21.6L7.55-21.6Q7.3-24.2 6.85-26.93 6.4-29.65 5.55-32.55L5.55-32.55Q5.5-32.85 5.55-32.9L5.55-32.9Q5.6-32.95 5.7-32.83 5.8-32.7 5.9-32.6L5.9-32.6Q6.5-31.9 7-30.63 7.5-29.35 7.9-27.83 8.3-26.3 8.6-24.6 8.9-22.9 9.15-21.3 9.4-19.7 9.58-18.3 9.75-16.9 9.95-15.95L9.95-15.95Q10.15-14.8 10.28-13.58 10.4-12.35 10.5-11.15L10.5-11.15Q10.85-12.55 11.38-13.98 11.9-15.4 12.48-16.75 13.05-18.1 13.58-19.3 14.1-20.5 14.45-21.35L14.45-21.35Q15.4-23.65 16.53-25.9 17.65-28.15 18.7-29.75L18.7-29.75Q18.85-30 19-30.23 19.15-30.45 19.25-30.4ZM7.05-14.5L7.05-14.5Q7.1-14.35 7.05-13.85 7-13.35 6.9-13.35L6.9-13.35Q6.8-13.3 6.7-13.78 6.6-14.25 6.5-14.45L6.5-14.45Q6.35-15.1 6.13-16.05 5.9-17 5.68-18 5.45-19 5.28-19.95 5.1-20.9 5.05-21.6L5.05-21.6Q5-21.95 4.88-22.98 4.75-24 4.53-25.43 4.3-26.85 4-28.45 3.7-30.05 3.38-31.55 3.05-33.05 2.73-34.23 2.4-35.4 2.05-35.95L2.05-35.95Q1.75-36.35 1.9-36.45L1.9-36.45Q2-36.55 2.15-36.4 2.3-36.25 2.4-36.15L2.4-36.15Q3.1-35.55 3.73-34.45 4.35-33.35 4.88-32.08 5.4-30.8 5.75-29.5 6.1-28.2 6.25-27.15L6.25-27.15Q6.65-24.15 6.83-20.78 7-17.4 7.05-14.5ZM18-21.35L18-21.35Q18.15-21.3 18.05-20.9 17.95-20.5 17.9-20.35L17.9-20.35Q17.7-19.75 17.43-18.93 17.15-18.1 16.82-17.23 16.5-16.35 16.18-15.55 15.85-14.75 15.55-14.2L15.55-14.2Q15.35-13.8 14.78-12.2 14.2-10.6 13.55-8.58 12.9-6.55 12.33-4.53 11.75-2.5 11.6-1.25L11.6-1.25Q11.55-0.9 11.45-0.9L11.45-0.9Q11.3-0.85 11.05-1.1L11.05-1.1Q10.8-1.4 10.35-1.93 9.9-2.45 9.6-3L9.6-3Q9.35-3.5 9.03-4.35 8.7-5.2 8.45-6.03 8.2-6.85 8.1-7.48 8-8.1 8.15-8.15L8.15-8.15Q8.2-8.15 8.33-7.93 8.45-7.7 8.6-7.38 8.75-7.05 8.88-6.75 9-6.45 9.1-6.35L9.1-6.35Q9.4-5.7 9.65-5.13 9.9-4.55 10.15-3.9L10.15-3.9Q10.4-3.2 10.73-2.73 11.05-2.25 11.1-2.35L11.1-2.35Q11.1-2.35 11.1-2.63 11.1-2.9 11.05-3.23 11-3.55 10.98-3.9 10.95-4.25 10.95-4.4L10.95-4.4Q10.95-6.3 11.28-7.83 11.6-9.35 12.1-10.6L12.1-10.6Q13.15-13.15 14.58-15.78 16-18.4 17.35-20.7L17.35-20.7Q17.45-20.8 17.68-21.08 17.9-21.35 18-21.35ZM3.55-14.25L3.55-14.25Q3.05-17.25 2.8-20.35 2.55-23.45 2.3-26.4 2.05-29.35 1.63-32.05 1.2-34.75 0.4-37L0.4-37Q0.35-37.1 0.33-37.18 0.3-37.25 0.4-37.35L0.4-37.35Q0.45-37.4 0.55-37.25 0.65-37.1 0.7-37L0.7-37Q2.05-34.9 2.73-32.18 3.4-29.45 3.75-26.43 4.1-23.4 4.33-20.25 4.55-17.1 5.05-14.1L5.05-14.1Q5.35-12.2 5.93-10.25 6.5-8.3 7.3-6.48 8.1-4.65 9.1-3 10.1-1.35 11.3-0.1L11.3-0.1Q11.35-0.05 11.3 0.03 11.25 0.1 11.05 0L11.05 0Q9.4-1.05 8.15-2.58 6.9-4.1 6-5.98 5.1-7.85 4.5-9.95 3.9-12.05 3.55-14.25ZM55.8-17.6L55.8-17.6Q55.4-15.6 54.45-13.6 53.5-11.6 52.65-9.85L52.65-9.85Q52.6-9.75 52.42-9.5 52.25-9.25 52.15-9.25L52.15-9.25Q52-9.3 52-9.58 52-9.85 52-9.95L52-9.95Q52.05-10.4 52.17-11.03 52.3-11.65 52.4-12.33 52.5-13 52.62-13.63 52.75-14.25 52.9-14.75L52.9-14.75Q53.35-16.45 53.65-17.68 53.95-18.9 54.1-19.9 54.25-20.9 54.27-21.8 54.3-22.7 54.15-23.75L54.15-23.75Q54.1-24.15 54.2-24.25L54.2-24.25Q54.3-24.3 54.45-24.15 54.6-24 54.7-23.85L54.7-23.85Q55.55-22.5 55.85-20.88 56.15-19.25 55.8-17.6ZM56.8-21.25L57-20.95Q57.65-20 57.65-18.45 57.65-16.9 57.35-15.28 57.05-13.65 56.6-12.15 56.15-10.65 55.95-9.75L55.95-9.75Q55.55-8 54.85-6.25 54.15-4.5 53.65-3.15L53.65-3.15Q53.6-3 53.5-2.83 53.4-2.65 53.3-2.65L53.3-2.65Q53.2-2.65 53.2-2.85 53.2-3.05 53.2-3.2L53.2-3.2Q53.05-5.95 53.8-8.58 54.55-11.2 55.4-13.9L55.4-13.9Q55.9-15.55 56.35-17.28 56.8-19 56.75-21.05L56.75-21.05Q56.75-21.25 56.8-21.25L56.8-21.25ZM52.3-21.8L52.3-21.8Q49.25-20.55 47.12-18.23 45-15.9 43.85-13L43.85-13Q43.35-11.7 43.1-10.68 42.85-9.65 42.7-8.45L42.7-8.45Q42.65-8.2 42.85-7.95 43.05-7.7 43.25-7.95L43.25-7.95Q44.15-9.05 45.55-10.75 46.95-12.45 48.35-14.35 49.75-16.25 50.87-18.2 52-20.15 52.3-21.8ZM48.95-4.85L48.95-4.85Q48.2-3.8 47.5-2.9 46.8-2 45.95-1.33 45.1-0.65 44.05-0.25 43 0.15 41.65 0.2L41.65 0.2Q39.4 0.3 38.22-0.95 37.05-2.2 36.6-4 36.15-5.8 36.27-7.73 36.4-9.65 36.8-10.9L36.8-10.9Q37.35-12.65 38.12-14.23 38.9-15.8 39.77-17.07 40.65-18.35 41.57-19.28 42.5-20.2 43.4-20.7L43.4-20.7Q43.45-20.7 43.62-20.8 43.8-20.9 43.8-20.75L43.8-20.75Q43.85-20.75 43.75-20.6 43.65-20.45 43.55-20.35L43.55-20.35Q40.95-17.65 39.42-14.25 37.9-10.85 37.7-7.25L37.7-7.25Q37.65-6.35 37.77-5.3 37.9-4.25 38.27-3.33 38.65-2.4 39.35-1.78 40.05-1.15 41.25-1.15L41.25-1.15Q42.2-1.15 43-1.48 43.8-1.8 44.5-2.33 45.2-2.85 45.77-3.48 46.35-4.1 46.8-4.65L46.8-4.65Q47.8-5.9 48.65-7.25L48.65-7.25Q48.65-8.25 48.77-9.2 48.9-10.15 49.15-11.1L49.15-11.1Q49.3-11.8 49.42-12.23 49.55-12.65 49.67-13.03 49.8-13.4 49.92-13.83 50.05-14.25 50.3-14.95L50.3-14.95Q49.5-13.55 48.72-12.33 47.95-11.1 47.07-9.98 46.2-8.85 45.27-7.78 44.35-6.7 43.25-5.6L43.25-5.6Q42.4-4.75 41.85-5.05 41.3-5.35 41.2-6.45L41.2-6.45Q41.1-8.15 41.37-9.75 41.65-11.35 42.35-13.1L42.35-13.1Q43-14.7 43.97-16.2 44.95-17.7 46.22-18.93 47.5-20.15 49.05-21.03 50.6-21.9 52.35-22.2L52.35-22.2Q52.45-22.75 52.52-23.15 52.6-23.55 52.65-23.95L52.65-23.95Q52.75-24.5 52.75-24.5L52.75-24.5Q52.85-24.55 52.97-24.4 53.1-24.25 53.2-24L53.2-24Q53.8-22.35 53.6-20.7 53.4-19.05 52.87-17.35 52.35-15.65 51.65-13.88 50.95-12.1 50.5-10.3L50.5-10.3Q49.9-7.75 50.17-5.03 50.45-2.3 52.3-0.1L52.3-0.1Q52.45 0.1 52.45 0.1L52.45 0.1Q52.4 0.15 52.15 0L52.15 0Q50.7-0.9 49.97-2.18 49.25-3.45 48.95-4.85ZM50.7-22.55L50.7-22.55Q50.8-22.45 50.67-22.4 50.55-22.35 50.15-22.25L50.15-22.25Q49.5-22.05 48.57-21.5 47.65-20.95 46.62-20.1 45.6-19.25 44.6-18.13 43.6-17 42.85-15.7L42.85-15.7Q42.1-14.35 41.57-13.05 41.05-11.75 40.72-10.68 40.4-9.6 40.25-8.83 40.1-8.05 40.1-7.75L40.1-7.75Q40.1-7 40.1-6.18 40.1-5.35 40.3-4.7 40.5-4.05 41-3.7 41.5-3.35 42.5-3.5L42.5-3.5Q42.55-3.5 42.75-3.58 42.95-3.65 43.15-3.73 43.35-3.8 43.52-3.85 43.7-3.9 43.75-3.9L43.75-3.9Q43.8-3.8 43.67-3.65 43.55-3.5 43.35-3.33 43.15-3.15 42.97-3 42.8-2.85 42.75-2.8L42.75-2.8Q41.5-2.05 40.65-2.35 39.8-2.65 39.32-3.48 38.85-4.3 38.67-5.43 38.5-6.55 38.55-7.45L38.55-7.45Q38.65-9.2 39.1-10.93 39.55-12.65 40.25-14.4L40.25-14.4Q40.8-15.75 41.9-17.18 43-18.6 44.37-19.8 45.75-21 47.25-21.78 48.75-22.55 50.15-22.6L50.15-22.6Q50.65-22.6 50.7-22.55ZM53.65-0.1L53.65-0.1Q53.75 0.05 53.7 0.1L53.7 0.1Q53.55 0.1 53.3 0L53.3 0Q53.15-0.1 52.5-0.6 51.85-1.1 51.55-2.2L51.55-2.2Q51.45-2.6 51.37-3.23 51.3-3.85 51.3-4.4 51.3-4.95 51.37-5.35 51.45-5.75 51.6-5.75L51.6-5.75Q51.75-5.75 51.92-5.15 52.1-4.55 52.15-4.4L52.15-4.4Q52.3-3.7 52.42-3.18 52.55-2.65 52.7-2.2L52.7-2.2Q52.9-1.65 53.22-0.95 53.55-0.25 53.65-0.1ZM71.5-12.65L71.5-12.65Q70.8-9.65 70.55-6.4 70.3-3.15 70.95-0.1L70.95-0.1Q71 0 70.92 0.13 70.85 0.25 70.75 0L70.75 0Q69.9-1.65 69.57-3.35 69.25-5.05 69.25-6.73 69.25-8.4 69.5-10.1 69.75-11.8 70.15-13.45L70.15-13.45Q70.2-13.65 70.35-14.28 70.5-14.9 70.57-15.53 70.65-16.15 70.55-16.5 70.45-16.85 69.95-16.5L69.95-16.5Q68.8-15.65 67.82-14.38 66.85-13.1 66.25-11.9L66.25-11.9Q66.2-11.8 66.02-11.33 65.85-10.85 65.67-10.3 65.5-9.75 65.35-9.22 65.2-8.7 65.15-8.55L65.15-8.55Q64.75-7 64.15-5.6 63.55-4.2 63.15-3L63.15-3Q63-2.5 62.95-2.55L62.95-2.55Q62.7-2.55 62.7-3L62.7-3Q62.45-5.45 63.12-7.73 63.8-10 64.6-12.4L64.6-12.4Q65.1-13.95 65.52-15.48 65.95-17 65.9-18.85L65.9-18.85Q65.85-20.15 66.87-21.4 67.9-22.65 69.95-23.5L69.95-23.5Q71.15-24 72.2-23.95 73.25-23.9 74.15-23.5 75.05-23.1 75.75-22.35 76.45-21.6 76.9-20.7L76.9-20.7Q77.2-21.25 77.8-21.88 78.4-22.5 79.22-22.95 80.05-23.4 81.07-23.63 82.1-23.85 83.35-23.65L83.35-23.65Q84.25-23.5 84.92-23.05 85.6-22.6 86.12-22.03 86.65-21.45 86.95-20.85 87.25-20.25 87.4-19.85L87.4-19.85Q87.95-18.2 87.97-16.15 88-14.1 87.55-12.45L87.55-12.45Q86.8-9.75 85.77-7.65 84.75-5.55 84.4-3.9L84.4-3.9Q84.25-3.35 84.2-3.35L84.2-3.35Q84-3.35 83.97-3.55 83.95-3.75 83.9-3.95L83.9-3.95Q83.8-5 84.17-6.63 84.55-8.25 85.05-10.13 85.55-12 85.95-13.95 86.35-15.9 86.3-17.57 86.25-19.25 85.55-20.5 84.85-21.75 83.15-22.2L83.15-22.2Q81.8-22.55 80.77-22.23 79.75-21.9 79.05-21.5L79.05-21.5Q78-20.8 77.7-20.03 77.4-19.25 77.4-18.55L77.4-18.55Q78.25-20.1 79.65-21.03 81.05-21.95 82.95-21.35L82.95-21.35Q84.2-20.95 84.72-19.85 85.25-18.75 85.3-17.4 85.35-16.05 85.02-14.7 84.7-13.35 84.25-12.45L84.25-12.45Q84.2-12.35 84-11.98 83.8-11.6 83.55-11.65L83.55-11.65Q83.5-11.65 83.52-12.05 83.55-12.45 83.55-12.65L83.55-12.65Q83.7-13.25 83.75-14.05 83.8-14.85 83.77-15.7 83.75-16.55 83.65-17.35 83.55-18.15 83.35-18.7L83.35-18.7Q83.1-19.4 82.57-19.63 82.05-19.85 81.45-19.75 80.85-19.65 80.27-19.35 79.7-19.05 79.3-18.7L79.3-18.7Q78.2-17.75 77.95-16.98 77.7-16.2 77.55-15.2L77.55-15.2Q78.15-16.2 79.02-17.07 79.9-17.95 80.75-18.5L80.75-18.5Q81.2-18.7 81.52-18.65 81.85-18.6 82.07-18.38 82.3-18.15 82.4-17.82 82.5-17.5 82.55-17.25L82.55-17.25Q82.7-15.6 82.42-14.35 82.15-13.1 81.77-11.78 81.4-10.45 81.17-8.83 80.95-7.2 81.25-4.8L81.25-4.8Q81.5-3.05 82.3-1.65 83.1-0.25 84.3 0.1L84.3 0.1Q84.65 0.2 84.47 0.25 84.3 0.3 84.2 0.3L84.2 0.3Q83.3 0.2 82.5-0.4 81.7-1 81.07-1.9 80.45-2.8 80.05-3.9 79.65-5 79.6-6.1L79.6-6.1Q79.45-8.35 79.87-10.38 80.3-12.4 80.7-13.85L80.7-13.85Q80.8-14.25 80.92-14.88 81.05-15.5 81.02-15.95 81-16.4 80.7-16.48 80.4-16.55 79.7-15.9L79.7-15.9Q78.7-15 77.95-13.95 77.2-12.9 76.85-11.6L76.85-11.6Q75.7-7.45 73.55-3.65L73.55-3.65Q73.45-3.45 73.3-3.28 73.15-3.1 73.1-3.15L73.1-3.15Q73-3.15 73.05-3.4 73.1-3.65 73.15-3.9L73.15-3.9Q73.45-5.65 73.9-7.3 74.35-8.95 74.77-10.68 75.2-12.4 75.52-14.23 75.85-16.05 75.9-18.15L75.9-18.15Q75.8-18.85 75.62-19.6 75.45-20.35 74.6-21.35L74.6-21.35Q73.6-22.45 72.25-22.5 70.9-22.55 70.05-22.25L70.05-22.25Q69.5-22.1 68.87-21.7 68.25-21.3 67.72-20.75 67.2-20.2 66.87-19.48 66.55-18.75 66.7-17.9L66.7-17.9Q67.25-18.9 67.97-19.85 68.7-20.8 69.85-21.3L69.85-21.3Q70.2-21.45 70.75-21.58 71.3-21.7 71.9-21.73 72.5-21.75 73.1-21.55 73.7-21.35 74.15-20.8L74.15-20.8Q74.95-19.8 75.02-19 75.1-18.2 75.05-17.4L75.05-17.4Q74.95-15.95 74.6-14.68 74.25-13.4 73.7-12.25L73.7-12.25Q73.65-12.1 73.45-11.78 73.25-11.45 73.15-11.45L73.15-11.45Q73.05-11.5 73.02-11.88 73-12.25 73.1-12.4L73.1-12.4Q73.15-12.95 73.25-14.03 73.35-15.1 73.37-16.28 73.4-17.45 73.25-18.43 73.1-19.4 72.6-19.8L72.6-19.8Q72.15-20.15 71.25-20 70.35-19.85 69.65-19.3L69.65-19.3Q68.95-18.75 68.47-18.25 68-17.75 67.7-17.23 67.4-16.7 67.17-16.07 66.95-15.45 66.8-14.6L66.8-14.6Q67.4-15.75 68.2-16.75 69-17.75 70.15-18.45L70.15-18.45Q70.95-19 71.4-18.9 71.85-18.8 72.02-18.35 72.2-17.9 72.17-17.2 72.15-16.5 72.1-15.9L72.1-15.9Q72-15.1 71.85-14.25 71.7-13.4 71.5-12.65ZM85.8 0.1L85.8 0.1Q85.8 0.1 85.55 0.1L85.55 0.1Q85.45 0.1 85.3 0.05L85.3 0.05Q84.6-0.1 83.8-0.58 83-1.05 82.45-2.35L82.45-2.35Q82.25-2.85 82.15-3.65 82.05-4.45 82.05-5.2 82.05-5.95 82.15-6.5 82.25-7.05 82.45-7L82.45-7Q82.5-7 82.57-6.78 82.65-6.55 82.7-6.25 82.75-5.95 82.8-5.65 82.85-5.35 82.85-5.2L82.85-5.2Q82.95-4.5 83.1-3.83 83.25-3.15 83.5-2.6L83.5-2.6Q83.75-1.85 84.42-1.03 85.1-0.2 85.65-0.1L85.65-0.1Q85.9 0 85.8 0.1ZM72.35 0L72.35 0Q72.45 0.35 72.35 0.35L72.35 0.35Q72.1 0.35 71.95 0.1L71.95 0.1Q71.7-0.2 71.45-0.78 71.2-1.35 71.25-2.75L71.25-2.75Q71.25-3.3 71.35-4.08 71.45-4.85 71.57-5.53 71.7-6.2 71.85-6.65 72-7.1 72.2-7.05L72.2-7.05Q72.25-7.05 72.27-6.83 72.3-6.6 72.32-6.3 72.35-6 72.35-5.73 72.35-5.45 72.35-5.35L72.35-5.35Q72.35-4.55 72.3-3.93 72.25-3.3 72.25-2.6L72.25-2.6Q72.25-1.65 72.25-1 72.25-0.35 72.35 0ZM64.95-16.6L64.95-16.6Q64.4-14.7 63.47-12.85 62.55-11 61.95-9.3L61.95-9.3Q61.9-9.2 61.77-8.93 61.65-8.65 61.45-8.7L61.45-8.7Q61.35-8.75 61.32-9.03 61.3-9.3 61.3-9.45L61.3-9.45Q61.3-10.25 61.57-11.58 61.85-12.9 62.15-13.75L62.15-13.75Q62.25-14.05 62.52-15.28 62.8-16.5 63.02-17.95 63.25-19.4 63.32-20.75 63.4-22.1 63.05-22.7L63.05-22.7Q62.85-23.05 63.05-23.05L63.05-23.05Q63.2-23.05 63.45-22.8L63.45-22.8Q64.05-22.25 64.42-21.45 64.8-20.65 64.97-19.78 65.15-18.9 65.12-18.05 65.1-17.2 64.95-16.6ZM61.65 0.05L61.65 0.05Q60.1-1 59.27-2.25 58.45-3.5 58.15-4.85 57.85-6.2 57.92-7.6 58-9 58.3-10.35L58.3-10.35Q58.7-12.15 59.32-13.93 59.95-15.7 60.52-17.38 61.1-19.05 61.42-20.65 61.75-22.25 61.5-23.7L61.5-23.7Q61.5-23.9 61.55-23.9L61.55-23.9Q61.65-23.9 61.8-23.65L61.8-23.65Q62.7-22.05 62.65-20.35 62.6-18.65 62.1-16.88 61.6-15.1 60.87-13.28 60.15-11.45 59.75-9.6L59.75-9.6Q59.5-8.45 59.42-7.18 59.35-5.9 59.6-4.65 59.85-3.4 60.42-2.2 61-1 62-0.05L62-0.05Q62.2 0.05 62.1 0.15L62.1 0.15Q62 0.25 61.87 0.18 61.75 0.1 61.65 0.05ZM63.55 0.25L63.55 0.25Q63.4 0.35 63.15 0.1L63.15 0.1Q62.6-0.3 62.07-0.75 61.55-1.2 61.05-2.2L61.05-2.2Q60.85-2.55 60.75-3.1 60.65-3.65 60.65-4.17 60.65-4.7 60.72-5.05 60.8-5.4 60.95-5.4L60.95-5.4Q61.15-5.35 61.27-4.85 61.4-4.35 61.5-4.2L61.5-4.2Q61.7-3.65 61.85-3.18 62-2.7 62.2-2.25L62.2-2.25Q62.5-1.55 62.8-1.05 63.1-0.55 63.5-0.05L63.5-0.05Q63.55 0 63.6 0.1 63.65 0.2 63.55 0.25ZM100.34-9.4L100.34-9.4Q99.69-8.2 98.89-6.83 98.09-5.45 97.34-4.85L97.34-4.85Q96.59-4.25 96.29-4.45 95.99-4.65 95.59-5.35L95.59-5.35Q95.19-5.95 95.19-5.95L95.19-5.95Q95.04-5.9 95.04-5.6 95.04-5.3 95.14-5.05L95.14-5.05Q95.44-4.05 95.87-3.68 96.29-3.3 97.09-3.55L97.09-3.55Q97.99-3.8 98.87-4.65 99.74-5.5 100.39-6.35L100.39-6.35Q101.89-8.4 102.77-10.7 103.64-13 103.74-15.4L103.74-15.4Q103.84-17.6 103.19-18.25 102.54-18.9 101.57-18.68 100.59-18.45 99.47-17.63 98.34-16.8 97.44-16.05L97.44-16.05Q97.74-16.8 98.27-17.5 98.79-18.2 99.47-18.73 100.14-19.25 100.97-19.53 101.79-19.8 102.64-19.7L102.64-19.7Q103.14-19.65 103.54-19.2 103.94-18.75 104.19-18.07 104.44-17.4 104.52-16.5 104.59-15.6 104.49-14.65L104.49-14.65Q104.24-12.75 103.77-10.85 103.29-8.95 102.54-7.35L102.54-7.35Q102.44-7.1 102.22-6.65 101.99-6.2 102.09-6.1L102.09-6.1Q102.19-6 102.57-6.43 102.94-6.85 103.14-7.05L103.14-7.05Q104.04-8.25 104.74-9.78 105.44-11.3 105.82-12.9 106.19-14.5 106.24-16.13 106.29-17.75 105.94-19.2L105.94-19.2Q105.64-20.45 104.72-20.9 103.79-21.35 102.69-21.2 101.59-21.05 100.49-20.5 99.39-19.95 98.69-19.3L98.69-19.3Q98.99-20.05 99.52-20.63 100.04-21.2 100.72-21.63 101.39-22.05 102.17-22.23 102.94-22.4 103.74-22.3L103.74-22.3Q105.14-22.15 105.87-21.2 106.59-20.25 106.87-19.03 107.14-17.8 107.12-16.48 107.09-15.15 106.99-14.25L106.99-14.25Q106.74-12.15 106.04-10.1 105.34-8.05 104.29-6.3L104.29-6.3Q103.44-4.9 102.07-3.55 100.69-2.2 99.09-1.4 97.49-0.6 95.79-0.58 94.09-0.55 92.59-1.8L92.59-1.8Q91.59-2.65 91.17-4.08 90.74-5.5 90.59-6.8L90.59-6.8Q90.34-9.05 90.67-11.33 90.99-13.6 91.64-15.55L91.64-15.55Q92.64-18.6 93.92-21.7 95.19-24.8 96.12-27.8 97.04-30.8 97.29-33.6 97.54-36.4 96.49-38.9L96.49-38.9Q96.44-39 96.42-39.1 96.39-39.2 96.34-39.2L96.34-39.2Q96.19-39.15 96.22-39.1 96.24-39.05 96.24-39L96.24-39Q96.54-36.6 96.04-34 95.54-31.4 94.62-28.6 93.69-25.8 92.54-22.83 91.39-19.85 90.34-16.7L90.34-16.7Q89.64-14.45 89.22-11.9 88.79-9.35 89.19-6.7L89.19-6.7Q89.74-3.1 92.14-1.35 94.54 0.4 98.14 0L98.14 0Q100.74-0.3 102.74-2.1 104.74-3.9 106.09-6.45L106.09-6.45Q107.09-8.4 107.82-10.58 108.54-12.75 108.69-15L108.69-15Q108.79-16.4 108.67-17.9 108.54-19.4 108.02-20.68 107.49-21.95 106.47-22.78 105.44-23.6 103.74-23.7L103.74-23.7Q102.74-23.75 101.52-23.2 100.29-22.65 99.59-21.9L99.59-21.9Q100.04-23.4 100.42-24.98 100.79-26.55 100.99-28 101.19-29.45 101.17-30.73 101.14-32 100.79-32.9L100.79-32.9Q100.69-33.3 100.59-33.3L100.59-33.3Q100.54-33.3 100.54-32.9L100.54-32.9Q100.44-29.7 99.49-26.83 98.54-23.95 97.59-21.35L97.59-21.35Q96.84-19.25 96.02-17.18 95.19-15.1 94.62-13.05 94.04-11 93.79-9.03 93.54-7.05 93.89-5.2L93.89-5.2Q93.94-5 94.07-4.73 94.19-4.45 94.29-4.45L94.29-4.45Q94.39-4.45 94.37-4.7 94.34-4.95 94.39-5.2L94.39-5.2Q94.64-6.95 95.34-9.43 96.04-11.9 96.99-14.4L96.99-14.4Q97.54-14.9 98.32-15.58 99.09-16.25 99.87-16.8 100.64-17.35 101.29-17.63 101.94-17.9 102.24-17.65L102.24-17.65Q102.64-17.25 102.54-16.18 102.44-15.1 102.07-13.8 101.69-12.5 101.19-11.28 100.69-10.05 100.34-9.4ZM98.89-27.35L98.89-27.35Q99.19-28.4 99.37-29.88 99.54-31.35 99.49-32.83 99.44-34.3 99.12-35.63 98.79-36.95 98.14-37.75L98.14-37.75Q98.04-37.85 97.94-37.98 97.84-38.1 97.74-38.1L97.74-38.1Q97.59-38.1 97.79-37.6L97.79-37.6Q98.24-36.6 98.09-34.63 97.94-32.65 97.49-30.4 97.04-28.15 96.44-26 95.84-23.85 95.34-22.6L95.34-22.6Q95.04-21.9 94.72-20.9 94.39-19.9 94.09-18.88 93.79-17.85 93.52-16.88 93.24-15.9 93.09-15.2L93.09-15.2Q93.09-14.95 93.02-14.5 92.94-14.05 92.99-14.05L92.99-14.05Q93.24-13.95 93.42-14.4 93.59-14.85 93.74-14.95L93.74-14.95Q95.14-17.8 96.52-20.98 97.89-24.15 98.89-27.35ZM93.54-3.55L93.54-3.55Q93.99-2.8 94.69-2.33 95.39-1.85 96.09-1.7L96.09-1.7Q96.34-1.65 96.64-1.58 96.94-1.5 96.94-1.3L96.94-1.3Q96.89-1.15 96.49-1.05L96.49-1.05Q96.29-1 96.04-1L96.04-1Q95.19-1.05 94.37-1.3 93.54-1.55 92.64-2.75L92.64-2.75Q92.04-3.55 91.77-4.55 91.49-5.55 91.44-6.45 91.39-7.35 91.52-7.95 91.64-8.55 91.89-8.5L91.89-8.5Q91.94-8.5 92.04-8.22 92.14-7.95 92.22-7.58 92.29-7.2 92.37-6.88 92.44-6.55 92.49-6.4L92.49-6.4Q92.69-5.55 92.84-5 92.99-4.45 93.54-3.55ZM124.19-20.4L124.19-20.4Q124.59-19.9 124.82-19.15 125.04-18.4 124.99-17.53 124.94-16.65 124.59-15.7 124.24-14.75 123.49-13.85L123.49-13.85Q122.04-12.15 120.32-11.23 118.59-10.3 117.19-10.3L117.19-10.3Q116.34-10.3 117.19-10.6L117.19-10.6Q117.64-10.75 118.27-11.08 118.89-11.4 119.59-11.88 120.29-12.35 121.02-13 121.74-13.65 122.34-14.5L122.34-14.5Q123.34-15.9 123.52-17.23 123.69-18.55 122.99-19.25L122.99-19.25Q122.39-19.85 121.59-19.93 120.79-20 119.19-19.05L119.19-19.05Q117.74-18.2 116.59-16.95 115.44-15.7 114.44-14.3L114.44-14.3Q113.89-13.6 113.72-13.6 113.54-13.6 113.84-14.5L113.84-14.5Q114.44-16.25 115.52-17.75 116.59-19.25 118.09-20.3L118.09-20.3Q119.19-21.05 120.12-21.35 121.04-21.65 121.82-21.6 122.59-21.55 123.19-21.23 123.79-20.9 124.19-20.4ZM126.89-16.9L126.89-16.9Q126.69-15.7 126.27-14.88 125.84-14.05 125.32-13.48 124.79-12.9 124.27-12.55 123.74-12.2 123.34-11.9L123.34-11.9Q123.14-11.75 123.04-11.85 122.94-11.95 123.19-12.2L123.19-12.2Q124.09-12.95 125.02-14.23 125.94-15.5 125.99-17.05L125.99-17.05Q125.99-19.7 124.69-21.1L124.69-21.1Q123.39-22.5 121.44-22.33 119.49-22.15 117.39-20.8L117.39-20.8Q116.04-19.95 115.02-18.82 113.99-17.7 113.24-16.43 112.49-15.15 112.02-13.8 111.54-12.45 111.34-11.1L111.34-11.1Q111.14-9.8 110.97-8.3 110.79-6.8 110.97-5.35 111.14-3.9 111.89-2.58 112.64-1.25 114.24-0.3L114.24-0.3Q114.49-0.15 114.77-0.1 115.04-0.05 115.04 0L115.04 0Q115.04 0.1 114.79 0.13 114.54 0.15 114.24 0.05L114.24 0.05Q112.99-0.2 112.12-0.98 111.24-1.75 110.69-2.75 110.14-3.75 109.84-4.85 109.54-5.95 109.49-6.85L109.49-6.85Q109.19-10.8 110.59-14.65L110.59-14.65Q110.89-15.45 111.37-16.45 111.84-17.45 112.54-18.48 113.24-19.5 114.19-20.48 115.14-21.45 116.34-22.2L116.34-22.2Q117.49-22.9 118.74-23.25 119.99-23.6 121.24-23.58 122.49-23.55 123.59-23.13 124.69-22.7 125.54-21.85L125.54-21.85Q126.29-21.05 126.72-19.8 127.14-18.55 126.89-16.9ZM122.34-18.7L122.34-18.7Q122.94-18 122.49-16.53 122.04-15.05 120.39-13.55L120.39-13.55Q119.49-12.7 118.64-12.18 117.79-11.65 116.49-11.25L116.49-11.25Q115.94-9.35 115.79-7.5 115.64-5.65 115.89-4.5L115.89-4.5Q115.94-4.05 116.22-3.63 116.49-3.2 117.02-2.98 117.54-2.75 118.39-2.8 119.24-2.85 120.49-3.35L120.49-3.35Q120.84-3.5 120.92-3.43 120.99-3.35 120.59-3.1L120.59-3.1Q119.69-2.4 118.69-2.13 117.69-1.85 116.82-1.95 115.94-2.05 115.32-2.55 114.69-3.05 114.49-3.9L114.49-3.9Q114.09-5.65 114.14-7.55 114.19-9.45 114.72-11.3 115.24-13.15 116.22-14.78 117.19-16.4 118.64-17.55L118.64-17.55Q121.34-19.7 122.34-18.7ZM121.84-2.75L121.84-2.75Q121.49-2.25 120.97-1.78 120.44-1.3 119.77-0.93 119.09-0.55 118.37-0.3 117.64-0.05 116.89-0.05L116.89-0.05Q115.59-0.05 114.47-0.63 113.34-1.2 112.74-2.95L112.74-2.95Q112.64-3.15 112.64-3.33 112.64-3.5 112.74-3.5L112.74-3.5Q112.94-3.6 113.14-3.38 113.34-3.15 113.54-2.9L113.54-2.9Q114.09-2.25 114.97-1.75 115.84-1.25 116.64-1.25L116.64-1.25Q118.14-1.25 119.24-1.7 120.34-2.15 121.34-2.9L121.34-2.9Q121.59-3.05 121.92-3.2 122.24-3.35 121.84-2.75ZM121.14-17.35L121.14-17.35Q120.94-17.75 119.69-16.7L119.69-16.7Q118.54-15.8 117.87-14.63 117.19-13.45 116.69-12.05L116.69-12.05Q117.64-12.5 118.44-13.08 119.24-13.65 119.94-14.2L119.94-14.2Q120.69-14.85 121.04-15.9 121.39-16.95 121.14-17.35ZM142.89-13.85L142.89-13.85Q143.04-15.2 142.94-16.7 142.84-18.2 142.31-19.48 141.79-20.75 140.71-21.6 139.64-22.45 137.89-22.45L137.89-22.45Q135.54-22.45 133.79-21.18 132.04-19.9 130.79-18.03 129.54-16.15 128.84-14.03 128.14-11.9 127.94-10.15L127.94-10.15Q127.64-7.75 127.86-6 128.09-4.25 128.69-3.13 129.29-2 130.21-1.45 131.14-0.9 132.24-0.9L132.24-0.9Q133.79-0.85 135.51-1.78 137.24-2.7 138.74-4.38 140.24-6.05 141.36-8.47 142.49-10.9 142.89-13.85ZM126.79-10.4L126.79-10.4Q126.99-12.4 127.79-14.8 128.59-17.2 130.01-19.25 131.44-21.3 133.44-22.68 135.44-24.05 138.09-24.05L138.09-24.05Q140.09-24.05 141.39-23.1 142.69-22.15 143.39-20.68 144.09-19.2 144.29-17.48 144.49-15.75 144.29-14.2L144.29-14.2Q143.84-10.6 142.54-7.95 141.24-5.3 139.49-3.53 137.74-1.75 135.79-0.88 133.84 0 132.04 0L132.04 0Q130.69 0 129.61-0.6 128.54-1.2 127.81-2.48 127.09-3.75 126.81-5.73 126.54-7.7 126.79-10.4ZM132.39-3.35L132.39-3.35Q132.14-3.35 131.89-3.53 131.64-3.7 131.49-3.95 131.34-4.2 131.29-4.45 131.24-4.7 131.49-4.8L131.49-4.8Q131.64-4.85 131.89-4.45 132.14-4.05 132.44-4.05L132.44-4.05Q132.94-4.05 133.61-4.7 134.29-5.35 134.91-6.23 135.54-7.1 136.01-7.95 136.49-8.8 136.69-9.2L136.69-9.2Q136.89-9.6 137.09-10.23 137.29-10.85 137.46-11.5 137.64-12.15 137.76-12.78 137.89-13.4 137.94-13.85L137.94-13.85Q138.19-16.1 137.84-17.32 137.49-18.55 136.69-18.55L136.69-18.55Q136.09-18.55 135.44-18.18 134.79-17.8 134.21-17.2 133.64-16.6 133.19-15.88 132.74-15.15 132.54-14.4L132.54-14.4Q132.29-13.55 132.19-13.55L132.19-13.55Q132.04-13.55 132.04-14.4L132.04-14.4Q132.19-15.35 132.69-16.28 133.19-17.2 133.94-17.93 134.69-18.65 135.59-19.13 136.49-19.6 137.44-19.6L137.44-19.6Q138.39-19.6 138.86-18.93 139.34-18.25 139.54-17.28 139.74-16.3 139.71-15.28 139.69-14.25 139.59-13.65L139.59-13.65Q139.39-12.3 138.96-11.03 138.54-9.75 137.94-8.45L137.94-8.45Q137.64-7.85 137.04-6.98 136.44-6.1 135.66-5.3 134.89-4.5 134.01-3.93 133.14-3.35 132.39-3.35ZM133.99-2.4L133.99-2.4Q134.04-2.1 133.51-1.9 132.99-1.7 132.44-1.7L132.44-1.7Q130.89-1.75 130.06-2.7 129.24-3.65 128.91-4.95 128.59-6.25 128.61-7.65 128.64-9.05 128.74-10L128.74-10Q128.94-11.65 129.54-13.7 130.14-15.75 131.24-17.55 132.34-19.35 133.94-20.58 135.54-21.8 137.74-21.8L137.74-21.8Q139.19-21.8 140.06-21.05 140.94-20.3 141.36-19.2 141.79-18.1 141.86-16.82 141.94-15.55 141.79-14.5L141.79-14.5Q141.69-13.35 141.44-12.4 141.19-11.45 140.74-10.3L140.74-10.3Q140.59-9.95 140.34-9.5 140.09-9.05 139.79-9.1L139.79-9.1Q139.64-9.15 139.71-9.5 139.79-9.85 139.91-10.38 140.04-10.9 140.19-11.48 140.34-12.05 140.39-12.55L140.39-12.55Q140.49-13.4 140.51-14.68 140.54-15.95 140.31-17.15 140.09-18.35 139.49-19.2 138.89-20.05 137.69-20.05L137.69-20.05Q135.94-20.05 134.46-18.93 132.99-17.8 131.89-16.18 130.79-14.55 130.11-12.78 129.44-11 129.29-9.65L129.29-9.65Q129.19-8.85 129.24-7.65 129.29-6.45 129.61-5.28 129.94-4.1 130.69-3.25 131.44-2.4 132.74-2.35L132.74-2.35Q133.14-2.3 133.51-2.43 133.89-2.55 133.99-2.4Z" opacity="1" transform="matrix(1,0,0,1,0,0)" fill="white" class="wordmark-text-0" id="SvgjsPath2889"></path></svg></g></svg></g></svg></g></svg></g></svg></g><defs><mask></mask></defs></svg><rect width="395.52" height="108.57034980566353" fill="black" stroke="none" visibility="hidden"></rect></g></mask><linearGradient x1="0" x2="1" y1="0.578" y2="0.595" id="513fc3fe-7462-47d3-b039-3be8821d4401"><stop stop-color="#6ee2f5" offset="0"></stop><stop stop-color="#6454f0" offset="1"></stop></linearGradient><rect width="395.52" height="108.57034980566353" fill="url(#513fc3fe-7462-47d3-b039-3be8821d4401)" mask="url(#13f0afab-10b7-456a-aed6-8264451b54cb)" data-fill-palette-color="primary"></rect></svg><rect width="395.52" height="108.57034980566353" fill="none" stroke="none" visibility="hidden"></rect></g></svg></g></svg>